<?xml version="1.0" standalone="no"?>
<!DOCTYPE svg PUBLIC "-//W3C//DTD SVG 20010904//EN"
 "http://www.w3.org/TR/2001/REC-SVG-20010904/DTD/svg10.dtd">
<svg version="1.0" xmlns="http://www.w3.org/2000/svg"
 width="225.000000pt" height="225.000000pt" viewBox="0 0 225.000000 225.000000"
 preserveAspectRatio="xMidYMid meet">
<metadata>
Created by potrace 1.10, written by Peter Selinger 2001-2011
</metadata>
<g transform="translate(0.000000,225.000000) scale(0.100000,-0.100000)"
fill="#000000" stroke="none">
<path d="M1102 2225 c-60 -26 -186 -170 -264 -300 -86 -143 -128 -282 -179
-590 -31 -191 -32 -218 -13 -377 5 -42 1 -55 -34 -120 -108 -197 -165 -422
-177 -705 l-6 -133 432 0 c312 0 436 3 446 12 10 8 17 8 25 0 7 -7 38 -12 71
-12 57 0 58 1 73 35 17 42 17 78 -1 128 l-13 39 95 130 c99 137 112 158 95
158 -6 0 -12 -5 -14 -12 -3 -7 -7 -8 -11 -2 -3 5 -2 15 2 22 5 9 17 7 46 -8
39 -20 125 -29 96 -11 -11 7 -5 14 25 29 40 21 83 61 102 97 18 33 15 -45 -5
-119 -18 -68 -13 -99 14 -94 16 3 18 20 19 188 1 102 -1 196 -4 208 -4 23 -5
23 -19 -7 -9 -17 -35 -42 -58 -56 -47 -27 -60 -31 -50 -15 10 16 -17 11 -65
-12 -25 -12 -48 -22 -52 -22 -19 -2 -42 -54 -44 -101 -2 -47 -7 -56 -51 -102
-27 -28 -78 -82 -112 -122 l-64 -71 -84 103 c-92 112 -140 198 -149 267 l-5
45 109 53 c166 79 227 154 183 225 l-21 35 25 105 c14 58 22 112 19 120 -3 10
3 17 20 21 43 11 169 102 232 168 144 151 247 362 229 470 -4 22 -19 54 -35
72 -40 44 -96 42 -211 -8 -95 -41 -334 -172 -431 -236 -33 -23 -62 -39 -64
-37 -2 2 6 66 17 143 47 318 -2 458 -139 399z m81 -43 c26 -28 39 -109 32
-197 -16 -208 -72 -466 -117 -547 -12 -21 -19 -41 -15 -44 8 -8 82 64 89 86 4
12 8 12 31 -3 15 -9 39 -25 55 -34 27 -17 27 -17 9 3 -10 12 -33 30 -52 40
-39 21 -41 30 -21 77 20 48 70 91 186 161 233 139 415 226 476 226 137 0 41
-304 -160 -506 -81 -81 -159 -130 -217 -137 -43 -6 -48 -4 -79 28 -57 59 -54
39 4 -32 36 -43 56 -76 56 -93 0 -14 -11 -70 -25 -125 -23 -99 -23 -100 -4
-121 33 -35 24 -63 -38 -124 -45 -43 -81 -66 -156 -99 -114 -50 -128 -49 -246
5 -41 19 -76 32 -79 29 -6 -6 157 -85 175 -85 9 0 13 -14 13 -42 0 -118 38
-248 126 -441 31 -67 60 -132 65 -144 l9 -23 -263 0 -262 0 7 117 c7 118 25
262 35 289 3 8 1 14 -4 14 -19 0 -63 -262 -63 -372 l0 -48 -136 0 -137 0 6
133 c12 259 84 520 184 669 l31 46 -21 58 c-30 88 -30 238 2 319 12 33 31 107
41 165 42 244 85 363 186 518 84 129 205 248 255 252 3 0 13 -8 22 -18z m697
-1517 c0 -29 -49 -88 -102 -121 -62 -39 -108 -28 -108 26 0 52 58 100 122 100
18 0 40 5 48 10 25 16 40 11 40 -15z m-690 -172 c16 -32 67 -101 111 -153 110
-129 139 -181 139 -247 l0 -53 -49 0 c-45 0 -49 2 -56 27 -3 14 -31 79 -60
144 -68 148 -136 339 -121 339 3 0 19 -26 36 -57z m430 -43 c-8 -5 -18 -6 -22
-4 -4 3 -5 -1 -3 -8 5 -13 -125 -200 -143 -206 -4 -1 -13 7 -20 18 -11 18 -6
27 46 82 33 35 76 82 97 106 27 31 41 40 49 32 8 -8 7 -13 -4 -20z"/>
<path d="M899 1177 c-8 -7 -23 -24 -33 -39 -13 -20 -14 -28 -5 -34 8 -4 15 -2
17 6 3 8 15 24 28 37 46 46 127 17 127 -45 0 -20 5 -32 14 -32 25 0 15 60 -16
91 -24 23 -38 29 -73 29 -24 0 -50 -6 -59 -13z"/>
<path d="M1341 1061 c-6 -11 -11 -27 -11 -35 0 -24 18 -19 22 6 2 13 11 24 20
26 12 2 18 -6 21 -30 4 -28 4 -27 3 7 -1 33 -5 41 -23 43 -14 2 -26 -4 -32
-17z"/>
<path d="M1165 1044 c65 -58 63 -57 95 -44 41 17 38 26 -12 34 -24 4 -54 10
-68 13 -15 3 -21 2 -15 -3z"/>
<path d="M1180 893 c-26 -14 -157 -13 -192 2 -10 4 -18 3 -18 -3 0 -25 145
-41 195 -22 23 9 32 6 57 -15 16 -14 35 -25 41 -25 7 0 -1 10 -16 22 -16 11
-32 28 -35 37 -6 15 -10 15 -32 4z"/>
</g>
</svg>
