<?xml version="1.0" standalone="no"?>
<!DOCTYPE svg PUBLIC "-//W3C//DTD SVG 20010904//EN"
 "http://www.w3.org/TR/2001/REC-SVG-20010904/DTD/svg10.dtd">
<svg version="1.0" xmlns="http://www.w3.org/2000/svg"
 width="300.000000pt" height="200.000000pt" viewBox="0 0 300.000000 200.000000"
 preserveAspectRatio="xMidYMid meet">
<metadata>
Created by potrace 1.10, written by Peter Selinger 2001-2011
</metadata>
<g transform="translate(0.000000,200.000000) scale(0.100000,-0.100000)"
fill="#000000" stroke="none">
<path d="M1059 1961 c-78 -50 -192 -200 -254 -333 -48 -104 -78 -215 -111
-408 -29 -169 -34 -250 -20 -355 8 -59 7 -62 -37 -145 -88 -164 -133 -345
-143 -577 -7 -142 -7 -143 14 -143 21 0 22 5 22 79 0 108 25 286 55 401 25 93
100 264 129 292 12 13 11 23 -6 74 -28 81 -28 200 1 274 11 30 30 108 41 173
38 222 106 382 227 529 62 76 125 128 154 128 10 0 27 -12 36 -27 25 -37 22
-179 -6 -347 -25 -151 -44 -223 -77 -288 -18 -35 -21 -48 -11 -48 15 0 49 34
66 68 l12 22 46 -31 c25 -18 44 -25 41 -18 -2 8 -23 25 -47 37 -47 27 -48 38
-6 103 36 55 341 234 502 295 73 28 108 21 119 -21 24 -98 -63 -279 -198 -413
-86 -85 -133 -114 -187 -120 -41 -3 -49 0 -75 27 -50 52 -51 34 -1 -21 25 -29
48 -64 52 -77 3 -13 -4 -67 -16 -119 -19 -85 -19 -97 -6 -112 45 -49 -15 -124
-152 -191 -107 -53 -133 -53 -236 -6 -43 20 -75 31 -71 26 7 -12 142 -79 159
-79 5 0 11 -30 13 -68 3 -90 32 -191 93 -325 28 -62 60 -136 71 -164 15 -39
26 -53 40 -53 28 0 21 23 -56 195 -69 152 -110 268 -103 288 2 6 14 -9 26 -34
12 -25 51 -81 87 -125 138 -168 164 -227 130 -292 -16 -32 -16 -32 7 -32 42 0
61 78 36 149 -9 24 -8 36 2 50 8 11 47 65 88 121 40 55 71 104 67 107 -4 4
-13 -3 -22 -15 -8 -12 -19 -20 -23 -18 -4 3 -8 -1 -8 -8 0 -8 -28 -53 -64
-100 -57 -77 -65 -85 -76 -69 -7 9 -13 19 -13 22 1 3 46 53 101 111 63 67 102
101 107 94 15 -24 112 -38 97 -14 -3 4 9 13 25 20 16 7 46 30 65 51 l35 39 0
-27 c0 -16 -7 -52 -15 -82 -14 -54 -8 -91 16 -91 14 0 36 53 24 57 -7 2 -10
58 -8 151 1 81 -1 156 -4 166 -5 17 -7 15 -19 -12 -15 -37 -71 -74 -97 -66
-10 3 -35 -3 -56 -15 -22 -11 -41 -18 -44 -15 -11 11 -40 -54 -41 -94 -1 -38
-7 -50 -46 -90 -25 -26 -71 -75 -102 -110 l-55 -63 -15 23 c-9 13 -39 50 -67
83 -66 77 -124 190 -119 234 3 30 9 35 60 56 157 64 245 167 192 226 -15 17
-15 25 5 111 12 51 21 100 21 108 0 8 28 30 63 49 86 47 222 185 281 286 47
80 86 186 86 231 0 77 -60 131 -132 119 -52 -9 -328 -148 -447 -225 -91 -59
-93 -60 -87 -33 3 15 13 88 23 161 14 109 15 146 5 200 -18 111 -75 140 -163
83z m711 -1371 c0 -32 -27 -66 -80 -100 -52 -34 -84 -34 -95 -1 -17 55 44 99
168 120 4 0 7 -8 7 -19z"/>
<path d="M895 1035 c-25 -24 -33 -55 -15 -55 6 0 10 5 10 10 0 19 40 50 64 50
32 0 69 -31 71 -60 2 -35 25 -38 25 -3 -1 74 -102 112 -155 58z"/>
<path d="M1291 934 c-6 -15 -10 -29 -7 -31 8 -8 26 7 26 23 0 20 28 18 34 -3
3 -11 4 -7 3 7 -3 36 -40 39 -56 4z"/>
<path d="M1140 930 c0 -4 14 -17 31 -29 26 -19 35 -21 55 -12 37 16 29 26 -31
37 -30 5 -55 7 -55 4z"/>
<path d="M1162 798 c-14 -14 -122 -17 -164 -5 -17 4 -28 3 -28 -2 0 -5 25 -15
56 -22 44 -10 66 -10 100 -1 40 11 46 10 64 -8 11 -11 26 -20 33 -20 7 1 3 8
-9 18 -11 9 -25 25 -30 35 -8 13 -13 14 -22 5z"/>
<path d="M815 391 c-14 -44 -35 -192 -41 -287 -6 -89 -5 -104 8 -104 12 0 16
25 22 138 3 75 12 167 20 205 7 37 9 67 5 67 -4 0 -10 -8 -14 -19z"/>
</g>
</svg>
